<?xml version="1.0" encoding="UTF-8"?>
<svg id="Layer_2" data-name="Layer 2" xmlns="http://www.w3.org/2000/svg" viewBox="0 0 1609.48 1543.54">
  <defs>
    <style>
      .cls-1 {
        opacity: .6;
      }

      .cls-2 {
        opacity: .9;
      }

      .cls-3 {
        opacity: .8;
      }

      .cls-4 {
        opacity: .5;
      }

      .cls-5 {
        opacity: .7;
      }
    </style>
  </defs>
  <g id="_Слой_1" data-name="Слой 1">
    <g>
      <polygon class="cls-5" points="1609.48 1410.4 708.85 1543.42 856.3 1002.13 1148.84 958.84 1148.96 958.87 1609.48 1410.4"/>
      <polygon class="cls-1" points="856.3 1002.13 708.81 1543.54 708.69 1543.51 0 971.95 625.87 816.5 625.99 816.53 856.18 1002.1 856.3 1002.13"/>
      <polygon points="1440.85 915.14 998.21 481.22 1129.3 0 1440.85 915.14"/>
      <polygon class="cls-1" points="1609.48 1410.4 1148.96 958.87 1441.08 915.72 1609.48 1410.4"/>
      <polygon class="cls-2" points="1129.3 0 998.21 481.22 998.12 481.07 396.67 630.56 1129.3 0"/>
      <polygon class="cls-4" points="625.87 816.5 0 971.95 396.03 631.03 625.87 816.5"/>
      <polygon class="cls-5" points="998.21 481.22 927.27 741.62 625.99 816.53 625.87 816.5 396.03 631.03 396.67 630.56 998.12 481.07 998.21 481.22"/>
      <polygon class="cls-2" points="1441.08 915.72 1148.96 958.87 1148.84 958.84 927.27 741.62 998.21 481.22 1440.85 915.14 1441.08 915.72"/>
      <polygon class="cls-3" points="1148.84 958.84 856.3 1002.13 927.27 741.62 1148.84 958.84"/>
      <polygon class="cls-4" points="927.27 741.62 856.3 1002.13 856.18 1002.1 625.99 816.53 927.27 741.62"/>
    </g>
  </g>
</svg>