<?xml version="1.0" encoding="UTF-8"?>
<svg id="Layer_2" data-name="Layer 2" xmlns="http://www.w3.org/2000/svg" viewBox="0 0 1733.13 636.67">
  <defs>
    <style>
      .cls-1 {
        opacity: .6;
      }

      .cls-2 {
        opacity: .9;
      }

      .cls-3 {
        opacity: .8;
      }

      .cls-4 {
        opacity: .5;
      }

      .cls-5 {
        opacity: .7;
      }
    </style>
  </defs>
  <g id="_Слой_1" data-name="Слой 1">
    <g>
      <g>
        <polygon class="cls-5" points="530.43 464.82 233.61 508.66 282.21 330.27 378.62 316 378.66 316.01 530.43 464.82"/>
        <polygon class="cls-1" points="282.21 330.27 233.6 508.7 233.56 508.68 0 320.32 206.26 269.09 206.3 269.1 282.17 330.26 282.21 330.27"/>
        <polygon points="474.85 301.6 328.97 158.59 372.18 0 474.85 301.6"/>
        <polygon class="cls-1" points="530.43 464.82 378.66 316.01 474.93 301.79 530.43 464.82"/>
        <polygon class="cls-2" points="372.18 0 328.97 158.59 328.94 158.54 130.73 207.81 372.18 0"/>
        <polygon class="cls-4" points="206.26 269.09 0 320.32 130.52 207.96 206.26 269.09"/>
        <polygon class="cls-5" points="328.97 158.59 305.6 244.41 206.3 269.1 206.26 269.09 130.52 207.96 130.73 207.81 328.94 158.54 328.97 158.59"/>
        <polygon class="cls-2" points="474.93 301.79 378.66 316.01 378.62 316 305.6 244.41 328.97 158.59 474.85 301.6 474.93 301.79"/>
        <polygon class="cls-3" points="378.62 316 282.21 330.27 305.6 244.41 378.62 316"/>
        <polygon class="cls-4" points="305.6 244.41 282.21 330.27 282.17 330.26 206.3 269.1 305.6 244.41"/>
      </g>
      <g>
        <path d="M771.81,438.03l-67.68-238.9h-79.27l105.5,309.57-6.63,19.31c-3.27,9.8-7.69,18.4-13.26,25.8-5.57,7.39-12.25,13.21-20.03,17.44-7.78,4.22-16.96,6.34-27.53,6.34-6.53,0-12.83-.34-18.88-1.01-6.06-.68-10.33-1.58-12.83-2.74v59.09c1.73.77,6.15,1.59,13.26,2.45,7.1.87,15.18,1.29,24.21,1.29,29.01,0,52.36-4.71,70.04-14.12,17.68-9.42,31.85-22.58,42.52-39.49,10.66-16.91,19.74-36.61,27.24-59.09l107.22-324.84h-77.82l-66.06,238.9Z"/>
        <path d="M1296.52,438.03l-67.68-238.9h-79.27l105.5,309.57-6.63,19.31c-3.27,9.8-7.69,18.4-13.26,25.8-5.57,7.39-12.25,13.21-20.03,17.44-7.78,4.22-16.96,6.34-27.53,6.34-6.53,0-12.83-.34-18.88-1.01-6.06-.68-10.33-1.58-12.83-2.74v59.09c1.73.77,6.15,1.59,13.26,2.45,7.1.87,15.18,1.29,24.21,1.29,29.01,0,52.36-4.71,70.04-14.12,17.68-9.42,31.85-22.58,42.52-39.49,10.66-16.91,19.74-36.61,27.24-59.09l107.22-324.84h-77.82l-66.06,238.9Z"/>
        <path d="M1722.03,375.96c-7.4-10.85-17.05-19.64-28.97-26.37-11.92-6.73-25.03-12.11-39.34-16.14-14.32-4.04-28.49-7.21-42.51-9.51-14.8-2.49-27.86-5.33-39.2-8.5-11.34-3.17-20.18-7.16-26.52-11.96-6.34-4.8-9.51-11.05-9.51-18.73,0-8.07,3.08-14.37,9.22-18.88,6.15-4.51,13.84-7.68,23.06-9.51,9.22-1.83,18.16-2.74,26.81-2.74,9.8,0,19.12,1.35,27.96,4.04,8.84,2.7,16.04,6.83,21.61,12.39,5.57,5.58,8.36,12.78,8.36,21.62v3.75h74.94v-4.61c0-20.37-6.2-37.76-18.59-52.17-12.4-14.41-28.68-25.46-48.85-33.15-20.18-7.68-41.99-11.53-65.43-11.53s-46.75,3.56-67.02,10.67c-20.28,7.11-36.42,17.53-48.42,31.27-12.01,13.74-18.01,30.7-18.01,50.87,0,15.18,3.5,28.06,10.52,38.63,7.01,10.57,16.33,19.41,27.96,26.52,11.62,7.11,24.55,12.78,38.77,17.01,14.22,4.23,28.63,7.59,43.23,10.09,26.52,4.23,45.98,8.94,58.37,14.13,12.39,5.19,18.59,13.83,18.59,25.94,0,7.5-2.93,13.65-8.79,18.45-5.86,4.81-13.55,8.36-23.06,10.66-9.51,2.31-19.65,3.46-30.41,3.46-19.79,0-35.41-3.12-46.84-9.36-11.43-6.24-17.15-15.61-17.15-28.1v-5.19h-75.52v6.63c0,15.76,3.7,29.64,11.1,41.65,7.39,12.01,17.48,22.05,30.27,30.12,12.78,8.07,27.38,14.13,43.81,18.16,16.43,4.04,33.77,6.05,52.03,6.05s34.78-1.83,51.3-5.47c16.52-3.65,31.37-9.37,44.53-17.15,13.16-7.78,23.59-17.63,31.27-29.55,7.68-11.91,11.53-26.32,11.53-43.23,0-15.95-3.71-29.35-11.1-40.21Z"/>
        <path d="M1101.7,198.91l22.98,75.14h-42.37c-41.53,0-75.19,33.67-75.19,75.19v156.04h-75.14v-157.79c0-82.06,66.52-148.59,148.59-148.59h21.14Z"/>
      </g>
    </g>
  </g>
</svg>